<svg id="Complements" xmlns="http://www.w3.org/2000/svg" width="2048" height="2048" viewBox="0 0 2048 2048">
  <defs>
    <style>
      .cls-1 {
        fill: #5fe66b;
      }

      .cls-1, .cls-2 {
        fill-rule: evenodd;
      }
    </style>
  </defs>
  <g id="Vest">
    <path id="color_1" class="cls-1" d="M969,654c57.01-.282,23.022,43.916,31,79,4.1,18.014,15.28,35.831,26,48,35.34,40.119,102.31,49.007,136,91,66.03,82.291,66.24,221.84,88,350,10.22,60.18-12.26,147.39-43,170-20.22,14.87-107.65,26.24-145,19-27.46-5.32-50.44-15.7-74-23l-50-12c-45.853-18.45-82.093-48.39-107-88-22.634-36-33.92-79.99,5-108,8.563-6.16,16.766-13.59,31-14,5.619,7.86,42.13,27.62,59,15-49-3.79-82.829-41.17-95-82-13.407-44.97,8.061-101.709,42-109,20.124-4.323,33.317,7.01,46,11,9.563,3.01,30.094.38,38,4-0.689,51.82,4,181,4,181l-3,44s4.881,10.21,12,14c15.408,8.2,155.76,22.16,174,9,4.81-12.29,3.4-27.43,9-40,20.59,0.74,52.02,8.35,62-7v-1c-22.84.83-58.22,8.86-68-10-16.71-35.85-25.92-110.34-26-152-0.03-14.68-.95-36.5,5-47l21-6v-1c-8.61-.048-26.72.457-30-5q-1.5-12.5-3-25c-6.24-28.7-13.59-73.781-34-89-9.66-7.2-28.74-12.186-45-9-47.042,9.216-65.8,38.558-77,83q-4,26.5-8,53c-62.545-.553-117.049-99.589-90-171,5.986-15.8,17.7-33.588,33-40,6.077-2.546,14.208-1.193,18-6,5.112-11.416-10.847-22.292-6-42,3.582-14.564,26.272-47.434,45-39,0.242,15.662.007,36.552,5,49,7.774,19.38,44.421,62.142,64,69,0.67-1.667,1.33-3.334,2-5-5.82-27.566-45.455-35.728-60-56-4.76-6.635-3.351-15.843-5-26C951,699.207,952.182,670.618,969,654Zm299,138c14.49-.157,29.24,4.6,40,10,2.46,19.483-4.03,41.952-20,46,0.33,0.667.67,1.333,1,2,25.86,10.941,46.64,53.2,38,95-3.13,15.151-12.21,32.97-8,51,4.26,18.26,34.06,39.23,25,60h-9c-10.3-6.19-35.06-26.41-28-42-18.73-2.98-17.6-34.239-22-52C1275.87,925.161,1243.43,836.217,1268,792Z"/>
    <path id="contour_1" class="cls-2" d="M970,629c67.31,3.522,31.11,97.062,64,134,33.55,37.683,91.75,47.634,123,82,31.59,34.747,59.64,82.253,75,132,21.32,69.04,21.58,149.04,34,226,11.44,70.91-10.36,173.08-46,201-23.21,18.18-113.22,38.88-158,27q-29.49-5.505-59-11c-74.877-24.27-136.316-53.16-177-111-32.855-46.71-55.216-132.31,17-155l-6-6c-7.12-15.49-19.473-26.49-25-45-18.47-61.87,16.361-111.634,56-130v-1c-37.586-40.8-41.286-134.522-6-180,8.682-11.19,22.248-14.841,33-24-18.3-29.958,13.7-65.31,30-78l11-7c-1.333-8.333-6.871-15.266-4-25C936.616,636.226,950.9,630.625,970,629Zm294,153c8.35-.794,13.88,4.264,21,6,38.35,9.346,33.15,28.748,30,43-1.49,6.757-8.25,16.35-7,19,18.73,25.015,40.48,52.684,32,102q-6,23-12,46c5.2,27.59,46.24,71.26,40.18,91.69-5.61-6.85-13.05-11.93-18.18-15.69-9.31-7.36-21-14.67-28-23-10.95-14.07-22.61-26.96-33-42-24.27-35.148-52.52-157.808-39-219C1250.16,782.967,1258.63,781.983,1264,782Zm7,15c-12.53,54.55,2.86,107.738,16,152,6.06,20.419,6.37,45.078,18,60q5.505-2.5,11-5c-11.64-30.207,15.04-59.489,5-99-4.7-18.476-17.68-37.688-31-48-7.47-5.783-14.94-6.945-18-17,0.67-.333,1.33-0.667,2-1,15.36,17.668,36.52-24.287,29-34C1288.47,804.773,1284.03,798.234,1271,797Zm-153,286c-0.4,22.17-20.91-172.643-49-194-29.93-22.755-61.47-5.163-74,8-31.483,33.062-32,77-32,77s-0.612,29.05-10,34c-33.029,11.01-67.259-37.539-101,5-51.052,64.36,6.8,160.36,79,163,0.333,2.67.667,5.33,1,8-1.667,1.33-3.334,2.67-5,4-28.978,1.25-50.123.06-63-17-79.968,31.7-46.638,90.3-9,140,19.605,25.89,57.95,48.05,90,61l48,12c28.82,11.9,74.76,28.35,114,22,36.4-5.89,71.68-1.65,96-19,32.92-23.48,49.82-111.97,40-174-21.15-133.63-18.28-279.017-100-351-36.53-32.177-91.26-43.07-123-80-9.88-11.5-19.34-26.979-24-44-6.961-25.438,9.39-52.724-2-72-7.028-2.786-18.486-9.747-23.666-5.578C960.593,672.548,954.906,688.264,959,709c1.333,12.332.916,19.415,4,37-0.007,11.585,48.88,35.89,63,60,2.77,6.527-2.04,14.81-6,18-19.83-5.578-56.99-50.316-67-68-8.283-14.633-6.387-37.611-8-54-13.656,3.7-39.433,31.057-35,52,2.039,9.631,8.009,11.618,9,23q-2.5,5.5-5,11c-41.187-.485-61.548,54.2-52,100,10.316,49.479,37.434,96.647,89,104-0.892-65.645,18.552-125.749,78-136,18.81-3.244,40.22.14,53,9,21.65,15.007,36.84,86.845,40,121,15.43,3.449,35.32-1.307,47.46-.808,2.21,1.475,1.87,2.141,1.54,2.808-12.08,5.646-21.51,12.34-43.85,16.15-11.09.81-1.15,66.87-1.15,66.85C1126,1071,1118.4,1060.83,1118,1083Zm35,135c18.46,2.29,45.47,5.55,62-3,3.5-2.01,4.31-4.33,6-8-0.33-2.33-.67-4.67-1-7-13.84-2.51-30.77,4.34-45,3-8.33-2.67-19.67-8.33-28-11C1146.16,1192.42,1150.12,1203.8,1153,1218Zm159-318c5.41,1.138,5.84,1.607,7,7l-3,1c-4.61,3.066-14.89,7.107-22,4-3.48-1.83-2.69-.844-4-5C1298.22,907.513,1306.87,905.28,1312,900Zm5,111c-1.53,4.84-2.55,6.08-7,8,6.34,12.02,16.29,25.29,28,32h3v-1C1335.85,1038.73,1326.92,1017.65,1317,1011Z"/>
  </g>
</svg>
