<svg id="Complements" xmlns="http://www.w3.org/2000/svg" width="2048" height="2048" viewBox="0 0 2048 2048">
  <defs>
    <style>
      .cls-2 {
        fill: #73441b;
      }

      .cls-1, .cls-2, .cls-3 {
        fill-rule: evenodd;
      }

      .cls-1 {
        fill: #fff;
      }
    </style>
  </defs>
  <g id="cigar">
    <path id="color_2" class="cls-2" d="M1742,525c8.35,27.579-2.86,48.54-1,46-19.3,26.354-57.27,32.4-97,38-17.45,2.46-81.14-1.37-88.63-2.921-27.41-4.752-50.85-9.894-51.37-27.079,18.78-32.327,97.69-58.676,145-67C1757.39,498.881,1732.72,492.865,1742,525Z"/>
    <path id="color_1" class="cls-1" d="M1642,534c0.42-5.923,1.76-7.378,4-11,10.45-.035,34.03-11.37,43-1-0.67,1-1.33,2-2,3l-9,7Zm-24-5c1.33,1.333,2.67,2.667,4,4-0.33,1.333-.67,2.667-1,4-11.23,3.839-21.91,1.057-37,6-22.76,7.085-43.14,19.464-63,28l6-8C1530.56,560.333,1548.1,541.507,1618,529Z"/>
    <path id="contour_1" class="cls-3" d="M1721,497c66.53-2.159,58.99,36.121,44,83-21.01,6.632-40.95,20.249-63,28-67.63,23.77-172.54,17.894-206-30,1.3-3.325,1.07-2.545,1-8,38.14-20.86,73.13-43.682,120-58l74-13Zm13,14c-35.98,18.4-66.26,30.349-63,85,25.87-3.535,49.66-13.348,66-27-9.16-19.4-11.07-40.488,1-58h-4Zm-47,1-45,7q-8.505,13-17,26c-11.41,28.723,2.92,63.111,34,53-0.89-46.06,21.73-60.945,41-86h-13Zm64,1v3c0.67-1,1.33-2,2-3h-2Zm-118,7q-27.99,8-56,16c-15.94,13.205-11,61.173,7,67l33,1v-1c-4.08-15.882-7.36-38-1-55C1618.22,542.066,1633.83,520.276,1633,520Zm124,1c-0.67,1-1.33,2-2,3,2.05-1.355,1.61-1.12,3-3h-1Zm9,1v3c0.33-1,.67-2,1-3h-1Zm-19,4c-0.33,1-.67,2-1,3,0.33,0.333.67,0.667,1,1h1C1747.67,528.667,1747.33,527.333,1747,526Zm17,4c-0.33,1.333-.67,2.667-1,4C1764.52,531.714,1764.83,532.785,1764,530Zm-18,5v3c0.33-1,.67-2,1-3h-1Zm-179,6c-18.07,13.372-44.13,17.623-58,35,0.67,0.667,1.33,1.333,2,2,5.98,15.538,30.38,17.208,48,21-1.24-20.868,1.36-38.534,7-54C1566.33,543.667,1566.67,542.333,1567,541Zm202,6v3c0.33-1,.67-2,1-3h-1Zm-10,1c-0.33.667-.67,1.333-1,2,0.33,0.333.67,0.667,1,1h1c0.33-1,.67-2,1-3h-2Zm-6,2c-0.67,1-1.33,2-2,3,2.05-1.355,1.61-1.12,3-3h-1Zm11,6c-0.67,1.333-1.33,2.667-2,4h1C1764.22,557.733,1764.29,558.034,1764,556Z"/>
  </g>
</svg>
