<svg id="Baseline_all" xmlns="http://www.w3.org/2000/svg" width="2048" height="2048" viewBox="0 0 2048 2048">
  <defs>
    <style>
      .cls-1 {
        fill: #e2c5e4;
      }

      .cls-2 {
        fill: #fcd10b;
      }

      .cls-2, .cls-3, .cls-4, .cls-5, .cls-6 {
        fill-rule: evenodd;
      }

      .cls-3 {
        fill: #d21022;
      }

      .cls-4 {
        fill: #fff;
      }

      .cls-5 {
        fill: #0e67db;
      }
    </style>
  </defs>
  <rect id="Background" class="cls-1" width="2048" height="2048"/>
  <path id="color_1" class="cls-2" d="M1283,451c100.18-.9,135.57,33.04,174,92q4.995,11,10,22,4.005-4,8-8c9.48-.293,11.2,1.4,16,5,4.98,14.579,20.26,28.378,9,44,86.25,22.579,53.43,126.928,5,164-37.69,28.852-129.66,45.068-198,28-19.51-4.871-31.32-18.711-49-23-11.33,42.589.78,98.8,9,137,11.66,54.188,25.84,96.52,51,136,20.96,32.89,50.32,56.53,74,86,28.66,35.66,57.53,75.7,76,121,62.82,154.09-9.9,280.83-143,315-0.25,29.68,7.07,115.55-2,128-19.52,5.58-122.68,24.25-137,16,3.39,8.93,1.46,15.2-3,21-40.74,8.45-196.955,15.55-226-6,0.4-33.66-5.09-64.92-10-94q-4-36.495-8-73-25.5,16.995-51,34c-34.241,18.1-76.18,30.08-115,42-128.59,39.47-266.6,8.45-355-47-35.645-22.36-61.88-46.15-85-81-5.547-8.36-21.977-24.13-16-39,1.666-2.33,3.333-4.67,5-7,18.989,0.09,30.575,6.16,47,9q41,4.005,82,8,13.5-.495,27-1c11.869,3.63,38.519,4.74,53,3,119.772-14.37,228.742-110.19,285-190,49.834-70.7,67.081-166.7,84-271q0.5-35.5,1-71c7.9-49.909,3.607-102.128,17-147,40.686-136.315,114.48-227.057,220-298,17.11-11.5,34.88-25.349,55-34l64-18Z"/>
  <path id="color_2" class="cls-3" d="M1103,287l68,85,34.62-25.716C1204.07,347.857,1225,445,1225,445s-26.91,7.692-37,12a397.693,397.693,0,0,0-71,40c-57.87,40.694-113.16,99.625-151,160-48.672,77.657-58.572,179.514-76,290q-1,37.5-2,75-9.5,66.99-19,134c-24.339,97.89-73.971,169.99-143,223-32.513,24.97-63.518,49.15-102,69-9.559,4.93-28.105,19.97-41,16-3.416-1.62-3.346-1.63-5-5q-0.5-27.99-1-56-2.5-22.5-5-45c1.666-1.67,3.333-3.33,5-5,19.621,3.88,55.066,40.55,74,35l4-3c-3.521-11.96-9-123-9-123,1.407-2.24,1.971-2.51,4-4,22.465,2.52,75.45,24.67,99,14,0.333-.67.667-1.33,1-2-3.124-22.54-18.9-43.39-27-62q-7.5-22.005-15-44c-3.217-7.87-11.94-20.15-10-29,10.864-19.11,117.776-11.96,131-33,3.34-12.41-24.464-33.27-32-41-12.774-13.1-87.092-97.527-89-110l3-4c28.5-3.3,80.244-9.034,102-21q0.5-2.5,1-5c-14.5-11.2-24.232-27.973-35-43l-72-91c1.537-15.071,21.516-17.954,33-23,25-10.983,67.558-21.978,86-41q-9-22-18-44-15.5-53-31-106l5-6c22.054,0.774,102.157,20.344,111,3q0.5-14,1-28c6.587-32.211,11.482-67.868,19-98,3.846-15.415,2.825-38.745,15-46,13.319,5.546,64.8,35.984,75,33,10.95-5.923,14.66-26.186,22-36C1074.53,325.932,1103,287,1103,287Z"/>
  <path id="color_3" class="cls-4" d="M1435,559c12.61,0.453,27.33,24.7,22,36-14.75.212-33.86,5.5-44,1v-8C1422.11,580.988,1428.82,568.853,1435,559Zm41,3c12.85,0.432,27.23,28.017,22,39-11.12-.147-28.75-3.317-37-8C1461.12,578.371,1470.02,571.328,1476,562Zm-96,1,9,2q10.005,13,20,26c-0.67,3-1.33,6-2,9-13.02,1.488-31.89,8.531-44,3C1363.14,587.233,1372.98,573.081,1380,563Zm-55,17c13.51-.167,39.5,15.7,33,29-13.71,2.676-28.46,17.892-40,13C1317.71,607.76,1319.7,589.689,1325,580Z"/>
  <path id="color_4" class="cls-5" d="M980,1188c10.178-.4,12.877,1.17,18,5q2.5,13.5,5,27v-2c6.1-11.29,14.83-37.72,37-28,13.81,6.83,10.99,28.11,17,43,0.14-14.87,5.4-32.19,16-37h13c10.37,5.07,22.39,44.35,16,58-47.35.8-108.2-2.76-140-19C961.346,1212.62,967.9,1197.74,980,1188Zm320,462c20.12-.95,30.66,27.79,21,43-15.17,4.03-72.66,16.59-87,10-1.78-40.49,44.22-70.36,48-19h1C1284.91,1667.09,1290.4,1658.83,1300,1650Zm-208,27q6.495,0.495,13,1c15.22,7.58,9.3,28.69,16,45,0.89-20.39,8.05-30.92,19-41,19.32-.78,20.5,10.7,22,27h1c0.39-7.71,2.82-11.4,6-16,3,0.67,6,1.33,9,2,1.29,11.17,6.56,25.09,2,35-19.14,4.09-100.32,15.64-120,5C1059.2,1702.85,1072.39,1688.71,1092,1677Z"/>
  <path id="contour_1" class="cls-6" d="M1198,1724c-1.33,7-.75,14.07-1,27-173.88,15.16-242.211,2.04-251-4,2.369,10.38-8.789-100.07-17-157-246.234,142.72-470.11,51.94-540-8-46.495-39.88-83.289-85.68-87-132,2-1.33,4-2.67,6-4,43.131,14.73,134.213,36.13,198,26q27-3.495,54-7c2-22.66,0-45.34,2-68-1-20.33,4-43.67,3-64-5.725-5.92,41.625,22.48,82,39-7.07-38.97-15.776-89.03-19-130h1c30.672,6.81,67.667,12.52,105,14v-1q-22-50.49-44-101c-4.3-9.41-16.6-31.11-14-39,46.147,0.6,91.953-15.87,134-26q-65.493-72.99-131-146,0.5-1.5,1-3c37.6-9.431,77.968-20.574,121-24l-7-7-78-94c-9.239-11.776-24.795-23.932-27-42l31-18c26.66-15.612,59.4-30.4,91-39-17.545-37.178-30.481-77.556-45-119-4.721-13.477-17.137-34.139-12-49,39.97-1.058,81.818,12.5,128,15,20.906-136.84,26.383-204.122,38-191,31.485,14.113,54.562,24.572,77,39l3-2q19.5-26.5,39-53c20.27-28.666,35.04-60.593,56-88,5.49-.258,6.27-0.764,9,1,12.78,6.97,62,85,62,85l50-36s12.72,79.648,18,117c41.36-9.108,67.55-16.052,123,1,62.86,19.33,93.67,55.861,114,118,5.52-4.311,14-14,14-14s27.33,42,40,61c11.97,9.266,24.77,14.181,33,27,6.78,10.566,10.08,31.105,11,45,6.49,97.727-107.37,157.609-233,138-18.73-2.923-42.63-11.247-62-19-10.55,133.916,30.22,230.42,117,323,5.6,14.14,187.84,163.83,89,357-18.79,36.72-56.16,62.96-92,84q-25.5,11.505-51,23c6.78,26.81,8.35,91.82,3,121C1324.67,1719.56,1235.19,1723.53,1198,1724ZM1102,299c-43.6,83.038-95,140-95,140s-63.459-34.11-78-36q-12.5,64.994-25,130c-2.314,11.087,1.5,39.833-4,46-26.943,11.989-86.294-5.518-115-8,7.731,47.8,34.919,109.5,52,151-10.711,17.636-98.456,48.681-123,60l6,6,30,38,50,68,29,32c-11.23,12.406-89.268,22.653-113,25q0.5,1.5,1,3,63.493,72.5,127,145-0.5,1.5-1,3c-25.255,15.99-66.65,20.34-101,27l-37,6,42,103c3.8,9.9,16.767,28.8,14,37-30.5,9.94-81.027-3.17-108-13,5.835,39.35,5.494,94.58,13,132h-2c-21.437,8.67-67-29.2-83-36,1.35,30.77,4.3,67.24,5,101h1c30.05-10.08,54.451-26.53,79-42,90.961-57.32,161.079-131.3,196-245,14.594-47.52,15.3-103.35,24-156-0.616,38.16-3.769-151.4,39-272,49.47-139.492,158.9-251.774,293-304-6-28.331-18-85-18-85l-34,31S1122.43,319.935,1102,299ZM971,1724q44.49,3.495,89,7c-4.4-27.91,19.84-72.32,45-64,12.14,4.01,13.68,17.17,21,26,1.18-10,15.2-27.1,26-19,8.77,3.92,11.79,12.58,14,23h1c1.67-5.2,3.68-7.48,8-10-7.83-28.73-14.02-78.68-9-108-10.01.32,121.66,11.86,219-46,25.18-14.96,46.92-35.77,64-59,44.68-60.78,43.14-137.99,12-214-45.03-109.9-141.89-161.67-182-270-46.83-126.479-31.5-218.521-21-229-11.44-4.727,181.78,90.061,265-24,11.42-15.654,28.94-40.81,23-72-13.6-71.424-118.79-62.883-181-44-15.3,4.643-42.65,17.7-56,14v-1c2.45-10.834,13.26-59.458,20-64,11.33,6.666,34,20,34,20l23-43s18.33,25,27,37c0.67-.333,2-1,2-1s17.88-31.5,29-39c-35.3-88.03-150.22-102.879-247-61-27.91,12.079-55.63,32.081-79,50C880.643,715,927.368,935.837,912,1039c-14.147,133.12-38.346,237.74-158,342-55.012,47.93-115.866,94.28-202,110-154.233,28.14-219.375-21.93-223-15,94.3,178.86,323.033,166.19,360,165,57.041-1.84,168.985-38.92,235-81-6.13-19.74-15.734-48.2-5-63,7.229-7.03,14-2.45,19-1C951.265,1502.04,972.066,1744.55,971,1724ZM1441,563c-4.11,10.733-12.54,18.469-19,27v1l35-2Q1449.005,576,1441,563Zm41,3q-6.495,11.5-13,23h2l27,6Q1490.005,580.5,1482,566Zm-96,1-15,32,36-5c-0.67-.667-1.33-1.333-2-2Q1395.505,579.5,1386,567Zm-55,17q-2.505,16.5-5,33h1c9.42-5.766,20.43-9.171,31-15Zm110,755h5c-10.15,16.28,2.12,30.74,11,42v4c-2,1.33-4,2.67-6,4q-8.505-1.995-17-4a30.789,30.789,0,0,1-10,16h-3v-2q-1.5-11.505-3-23-9.495-13.995-19-28c12.55-1.71,19.52,4.11,28,9C1428.7,1346.33,1433.48,1343.73,1441,1339Zm-244,366q18.495-2.505,37-5c-2.52-39.23,40.64-76.9,51-31h1c1.14-16.44,18.32-36.05,33-26q-1.995-28.995-4-58h-1c-33.22,12.21-69.82,19.83-114,20Q1198.5,1655,1197,1705Zm94-13c11.8,0.09,21.03-2.48,30-5,0.33-1.67.67-3.33,1-5-3.02-9.51-5.06-20.62-10-28C1295.43,1654.84,1290.58,1674.58,1291,1692Zm-49,7q19.995-2.505,40-5c-1.86-14.66-7.92-23.66-13-34h-4C1253.06,1668.85,1243.14,1679.63,1242,1699Zm-174,32q25.995,0.495,52,1v-1c-4.16-14.42-2.11-41.17-14-48-2.19-1.75-2.69-1.75-7-2C1080.7,1688.1,1067.83,1705.77,1068,1731Zm94-3c-0.56-15.58-3.36-32.32-10-42-19.08,1.19-22.67,26.31-24,45h8Zm13-31c-2.86,8.86-6.25,18.22-5,29h1c3-.67,6-1.33,9-2Q1177.495,1710.5,1175,1697Z"/>
  <path id="contour_2" class="cls-6" d="M953,958c14.445,11.767,14.662,37.963,16,62,3.072,55.17-1.31,115.88-2,171,6.16-4.49,10.716-8.26,21-9,10.089,2.29,10.151,11.03,17,19v-2c7.71-12.41,18.8-22.19,38-17,6.49,1.29,10.98,17.01,14,30h1c2.29-13.98,11.18-24.26,28-24,19.99,8.12,16.21,39.32,23,60q13.005-1.005,26-2c-8.13-52.09-26.38-117.38-15-179,3.78,0.65,2.77-.49,7,2,4.32,37.04,6.88,72.06,15,104q11.505,42,23,84c-1,1.33-2,2.67-3,4-48.06,11.06-185.674,10.41-211-24-9.756-13.25-.2-54.04,0-75V1003C952.986,992.081,948.871,969.275,953,958Zm13,274q16.5,3.495,33,7c-4.842-14.74-2.553-34.75-10-46C988.818,1193.03,967.515,1185.3,966,1232Zm39,9c16,2.33,32,4.67,45.71,5.45-3.22-34.11-3.46-40.15-12.71-51.45C1014.77,1190.42,1004.24,1217.95,1005,1241Zm71-41c-12.02,10.86-13.49,27.33-17,47l1,1h38v-1c-3.94-13.33-5.34-40.63-12-46A12.148,12.148,0,0,0,1076,1200Z"/>
</svg>
