<svg id="Baseline_all" xmlns="http://www.w3.org/2000/svg" width="2048" height="2048" viewBox="0 0 2048 2048">
  <defs>
    <style>
    .cls-1 {
        fill-rule: evenodd;
      }
    </style>
  </defs>
  <path id="contour_2" fill='#fff' class="cls-1" d="M953,958c14.445,11.767,14.662,37.963,16,62,3.072,55.17-1.31,115.88-2,171,6.16-4.49,10.716-8.26,21-9,10.089,2.29,10.151,11.03,17,19v-2c7.71-12.41,18.8-22.19,38-17,6.49,1.29,10.98,17.01,14,30h1c2.29-13.98,11.18-24.26,28-24,19.99,8.12,16.21,39.32,23,60q13.005-1.005,26-2c-8.13-52.09-26.38-117.38-15-179,3.78,0.65,2.77-.49,7,2,4.32,37.04,6.88,72.06,15,104q11.505,42,23,84c-1,1.33-2,2.67-3,4-48.06,11.06-185.674,10.41-211-24-9.756-13.25-.2-54.04,0-75V1003C952.986,992.081,948.871,969.275,953,958Zm13,274q16.5,3.495,33,7c-4.842-14.74-2.553-34.75-10-46C988.818,1193.03,967.515,1185.3,966,1232Zm39,9c16,2.33,32,4.67,45.71,5.45-3.22-34.11-3.46-40.15-12.71-51.45C1014.77,1190.42,1004.24,1217.95,1005,1241Zm71-41c-12.02,10.86-13.49,27.33-17,47l1,1h38v-1c-3.94-13.33-5.34-40.63-12-46A12.148,12.148,0,0,0,1076,1200Z"/>
</svg>
