<svg id="Complements" xmlns="http://www.w3.org/2000/svg" width="2048" height="2048" viewBox="0 0 2048 2048">
  <defs>
    <style>
      .cls-1 {
        fill: #777a7f;
      }

      .cls-1, .cls-2, .cls-3, .cls-4 {
        fill-rule: evenodd;
      }

      .cls-2 {
        fill: #accdf9;
      }

      .cls-3 {
        fill: #1064d2;
      }
    </style>
  </defs>
  <g id="Cap">
    <path id="color_3" class="cls-1" d="M1522,391c31.2-.749,52.75,4.432,70,17,3.88,24.208-20,30.115-38,38-35.56,15.58-75.67,38.65-124,39-21.81-26.489-51.47-28.521-83-45,0.67-3,1.33-6,2-9l122-36Z"/>
    <path id="color_2" class="cls-2" d="M1228,316l9,2c-0.79,10.962-7.1,13.39-9,24q-0.495,29.5-1,59c-2.45,16.269,5.1,34.551,0,46-34.71,6.892-68.67,23.632-93,42-4.51-.215-5.39-0.708-8-2-8.47-85.873,15.93-132.2,68-161Z"/>
    <path id="color_1" class="cls-3" d="M1325,298l31,1c10.54,5.074,33.37,89.888,26,106-40.01,6.1-72.15,24.315-113,32-12.75,2.4-32.43,11.647-45,6-0.32-37.329-10.72-116.648,17-130Z"/>
    <path id="contour_1" class="cls-4" d="M1325,276c15.99-.154,29.59,1.563,40,6,32.48,13.844,36.61,74.276,40,110h3c46.04-15.644,185.71-40.605,196,21,3.22,19.288-20.54,29.972-32,36-41.68,21.93-92.26,37.305-132,60-16.85-3.278-29.63-18.458-42-27-24.36-16.816-82.63-35.476-129-28-41.04,6.617-74.62,18.137-103,38-13.65,9.549-24.67,33.132-47,20-6.78-17.132-10.45-38.244-9-62,1.99-32.658,3.08-61.675,16-85,25.18-45.463,83.81-63.847,140-78Zm4,27-85,15c-22.32,10.623-15.47,89.1-15,122,40.84-5.438,76.97-19,112-30,10-3.142,34.47-4.654,38-14-5.33-19.921-11.54-85.177-26-92Zm-98,18-32,9c-46.93,21.753-57.24,44.847-67,104-1.98,11.991-4.94,13.093,1,49,26.21-21.457,67.31-35.671,91-41v-1c-7.71-26.1-1.5-65.8-1-96C1223.12,337.5,1231,321,1231,321Zm269.43,75.739c-20.54.922-47.56,9.2-47.43,9.261l-4,1-19,6-5,1-5,2-6,2-13.76,3.791L1400,422l-14,4-34,10v1c35.72,5.122,51.78,24.344,90,28,67.75-4.435,132.07-27.025,147-47l-3-8-21-10C1547.68,394.587,1522.47,397,1500.43,396.739Z"/>
  </g>
</svg>
