<svg id="Complements" xmlns="http://www.w3.org/2000/svg" width="2048" height="2048" viewBox="0 0 2048 2048">
  <defs>
    <style>
      .cls-1 {
        fill-rule: evenodd;
      }
    </style>
  </defs>
  <g id="Glasses">
    <path id="contour_1" class="cls-1" d="M1473,442c4.22-2.374,11.65-5.168,11,3-0.87,19.848-32,78.359-40,99-17.82-9.605-43.37-28.286-58-34-4.01-1.567-8.48.907-13,1-15.39,20.024-42.16,41.551-62.03,61.755-23.95-6.525-39-34.7-56.97-48.755-22.28-.591-99.59-5.926-106,0-1.39.832-3.61,2.8-4,5-1.71,2.662,4.82,10.78-1,16-9.36-1.523-14.86-10.247-15-21l3-5c3.1-6.837,71.65-11.659,109-13-3.83-8.375-10.19-23.723-10-28,0.06-1.286,0-1.185,5-1,39.32,2.1,128.56,19.474,163,5C1423.68,471.207,1446.52,454.715,1473,442Z"/>
  </g>
</svg>
